<?xml version="1.0" encoding="utf-8"?>
<!DOCTYPE svg PUBLIC "-//W3C//DTD SVG 1.1//EN" "http://www.w3.org/Graphics/SVG/1.1/DTD/svg11.dtd">
<svg version="1.1" id="SF_5_logo" xmlns="http://www.w3.org/2000/svg" xmlns:xlink="http://www.w3.org/1999/xlink" x="0px" y="0px"
	 width="2000px" height="2000px" viewBox="-937 -937 2000 2000" enable-background="new -937 -937 2000 2000" xml:space="preserve">
<polygon id="BG_Full" fill="#E34C26" points="-604.336,808.485 -754.55,-876.5 895.333,-876.5 744.939,808.617 70.002,995.718 "/>
<polygon id="BG_Right" fill="#F06529" points="70.403,-738.752 70.403,852.595 616.178,701.311 744.761,-738.752 "/>
<polygon id="F" fill="#FFFFFF" points="587.99,-532.05 569.48,-325.39 -221.35,-325.39 -202.49,-113.76 550.75,-113.76 
	532.29,92.29 176.5,92.5 176.5,613.375 70.09,638.25 -353.24,520.66 -382.87,188.89 -175.44,188.89 -160.05,361.03 -36.5,394.43 
	-36.5,92.87 -391.46,92.87 -447.19,-532.05 "/>
<polygon id="S" fill="#EBEBEB" points="70.4,-325.39 -221.35,-325.39 -202.49,-113.76 70.4,-113.76 70.4,638.16 70.09,638.25 
	-353.24,520.66 -382.87,188.89 -175.44,188.89 -160.05,361.03 -36.5,394.43 -36.5,92.87 -391.46,92.87 -447.19,-532.05 
	70.4,-532.05 "/>
</svg>
